<svg width="32" height="32" viewBox="0 0 32 32" fill="none" xmlns="http://www.w3.org/2000/svg">
<g id="Frame">
<rect width="32" height="32" rx="16" fill="black"/>
<path id="Combined-Shape" fill-rule="evenodd" clip-rule="evenodd" d="M12.6393 18.5956L20.0234 22.8859C18.8401 23.597 17.4674 24 16 24C14.793 24 13.6569 23.7393 12.6393 23.2415V18.5956ZM12.0473 14.3998V22.9331C9.82261 21.7005 8.28424 19.4012 8.04757 16.7227L12.0473 14.3998ZM24 15.9403V16.0114C24 18.7136 22.651 21.1077 20.5919 22.5299L16.5922 20.2306L24 15.9403ZM19.9529 9.06667C22.1776 10.2993 23.716 12.5985 23.9527 15.277L19.9529 17.6V9.06667ZM11.4081 9.46963L15.4078 11.7689L8 16.0356V16.0119C8 13.2859 9.34903 10.8919 11.4081 9.46963ZM16.0005 8C17.2075 8 18.3435 8.26074 19.3612 8.75852V13.3807L11.977 9.09037C13.1604 8.40296 14.5331 8 16.0005 8Z" fill="white"/>
</g>
</svg>
