<svg width="128" height="30" viewBox="0 0 128 30" fill="none" xmlns="http://www.w3.org/2000/svg">
<g id="IMAGE" clip-path="url(#clip0_2_6)">
<g id="Aperture-Logotype-Horizontal-White">
<path id="Combined-Shape" fill-rule="evenodd" clip-rule="evenodd" d="M30.2538 3.8908C31.7682 3.8908 33.1385 4.24801 34.3649 4.95482C35.5913 5.66671 36.5618 6.67247 37.2763 7.9797C37.9908 9.28694 38.3481 10.8019 38.3481 12.5246C38.3481 14.2473 37.9908 15.7724 37.2763 17.0999C36.5618 18.4274 35.5913 19.456 34.3649 20.1856C33.1385 20.9152 31.7682 21.2801 30.2538 21.2801C28.9528 21.2801 27.8064 21.0267 26.8146 20.52C25.8228 20.0134 25.0176 19.3749 24.3991 18.6048V29.0323H19.92V4.1644H24.3991V6.59647C24.975 5.82885 25.7695 5.18283 26.7826 4.66602C27.7957 4.1492 28.9528 3.8908 30.2538 3.8908ZM48.074 3.8908C49.759 3.8908 51.268 4.23534 52.601 4.92442C53.9341 5.61351 54.9685 6.5914 55.7044 7.8581C56.4402 9.1248 56.8081 10.579 56.8081 12.2206C56.8081 12.8286 56.7655 13.3758 56.6802 13.8623H43.7229C43.8296 15.0783 44.2775 16.0308 45.0666 16.7199C45.8558 17.409 46.8263 17.7536 47.978 17.7536C49.6417 17.7536 50.8254 17.0746 51.5293 15.7167H56.3602C55.8483 17.3381 54.8672 18.6707 53.4169 19.7144C51.9665 20.7607 50.1855 21.2801 48.074 21.2801C46.3677 21.2801 44.8374 20.9203 43.483 20.2008C42.1286 19.4813 41.0728 18.4629 40.3157 17.1455C39.5585 15.8282 39.1799 14.3081 39.1799 12.5854C39.1799 10.845 39.5532 9.31481 40.2997 7.9949C41.0462 6.67754 42.0913 5.66671 43.435 4.95482C44.7787 4.24801 46.325 3.8908 48.074 3.8908ZM118.266 3.8908C119.951 3.8908 121.46 4.23534 122.793 4.92442C124.126 5.61351 125.16 6.5914 125.896 7.8581C126.632 9.1248 127 10.579 127 12.2206C127 12.8286 126.957 13.3758 126.872 13.8623H113.915C114.021 15.0783 114.469 16.0308 115.259 16.7199C116.048 17.409 117.018 17.7536 118.17 17.7536C119.834 17.7536 121.017 17.0746 121.721 15.7167H126.552C126.04 17.3381 125.059 18.6707 123.609 19.7144C122.158 20.7607 120.377 21.2801 118.266 21.2801C116.56 21.2801 115.029 20.9203 113.675 20.2008C112.32 19.4813 111.265 18.4629 110.508 17.1455C109.75 15.8282 109.372 14.3081 109.372 12.5854C109.372 10.845 109.745 9.31481 110.492 7.9949C111.238 6.67754 112.283 5.66671 113.627 4.95482C114.971 4.24801 116.517 3.8908 118.266 3.8908ZM3.42572 15.2959L11.6639 19.8307C11.344 20.084 10.9708 20.312 10.5709 20.5147C9.55773 21.0214 8.38465 21.2747 7.05161 21.2747C5.74522 21.2747 4.51882 20.9961 3.42572 20.4134V15.2959ZM85.2484 4.16516V13.4374C85.2484 14.775 85.6003 15.8036 86.3042 16.5231C87.008 17.2426 87.9678 17.6023 89.1836 17.6023C90.4206 17.6023 91.3911 17.2426 92.095 16.5231C92.7988 15.8036 93.1507 14.775 93.1507 13.4374V4.16516H97.6618V21.0072H93.1507V18.8792C92.5749 19.6088 91.823 20.1813 90.8952 20.5968C89.9674 21.0123 88.9596 21.22 87.8719 21.22C86.4855 21.22 85.2591 20.9413 84.1926 20.384C83.1262 19.8266 82.2891 19.0058 81.6812 17.9215C81.0733 16.8372 80.7694 15.5452 80.7694 14.0454V4.16516H85.2484ZM68.0697 3.92221V8.39113H66.886C65.4783 8.39113 64.4172 8.70527 63.7027 9.33355C62.9881 9.96184 62.6309 11.0563 62.6309 12.6168V21.0075H58.1518V4.16542H62.6309V6.77989C63.2068 5.88813 63.9586 5.18891 64.8864 4.68223C65.8142 4.17555 66.8753 3.92221 68.0697 3.92221ZM109.436 3.92221V8.39113H108.252C106.844 8.39113 105.783 8.70527 105.069 9.33355C104.354 9.96184 103.997 11.0563 103.997 12.6168V21.0075H99.5179V4.16542H103.997V6.77989C104.573 5.88813 105.325 5.18891 106.252 4.68223C107.18 4.17555 108.241 3.92221 109.436 3.92221ZM75.6524 0V4.16491H79.6195V7.661H75.6524V15.8084C75.6524 16.3759 75.7963 16.7863 76.0843 17.0396C76.3722 17.293 76.8574 17.4197 77.5399 17.4197H79.6195V21.007H76.8041C73.0289 21.007 71.1413 19.264 71.1413 15.778V7.661H69.0298V4.16491H71.1413V0H75.6524ZM17.4494 11.774V20.9956H12.9437V18.5382C12.7304 18.8422 12.4904 19.1208 12.1972 19.3742L7.87809 17.0181L17.4494 11.774ZM2.75919 10.7857V20.0326C1.63943 19.3233 0.732961 18.3606 0.0664377 17.0939C-0.600086 15.8525 -0.946678 14.4338 -1 12.8378L2.75919 10.7857ZM29.0701 7.6301C28.2596 7.6301 27.4971 7.8277 26.7826 8.22291C26.0681 8.61812 25.4922 9.19067 25.0549 9.94056C24.6177 10.6904 24.3991 11.5721 24.3991 12.5854C24.3991 13.5988 24.6177 14.4829 25.0549 15.2303C25.4922 15.9802 26.0681 16.5527 26.7826 16.9479C27.4971 17.3431 28.2596 17.5408 29.0701 17.5408C29.9019 17.5408 30.6751 17.3381 31.3896 16.9327C32.1041 16.5274 32.68 15.9498 33.1172 15.1999C33.5545 14.45 33.7731 13.5583 33.7731 12.5246C33.7731 11.5113 33.5545 10.6347 33.1172 9.89495C32.68 9.1552 32.1041 8.59279 31.3896 8.20771C30.6751 7.82263 29.9019 7.6301 29.0701 7.6301ZM17.4488 4.17378V11.0393L11.6634 14.206V5.33914C12.17 5.69382 12.5965 6.09916 12.9431 6.55517V4.17378H17.4488ZM2.09267 5.54207L6.54505 7.97413L-0.973339 12.1036C-0.946678 10.5582 -0.600086 9.19016 0.0664377 7.99946C0.599657 7.01144 1.29284 6.20075 2.09267 5.54207ZM47.946 7.38689C46.8369 7.38689 45.9038 7.7061 45.1466 8.34451C44.3895 8.98293 43.9256 9.86962 43.7549 11.0046H52.1691C52.1478 9.91016 51.7319 9.0336 50.9214 8.37491C50.1109 7.71623 49.1191 7.38689 47.946 7.38689ZM118.138 7.38689C117.029 7.38689 116.096 7.7061 115.339 8.34451C114.581 8.98293 114.117 9.86962 113.947 11.0046H122.361C122.34 9.91016 121.924 9.0336 121.113 8.37491C120.303 7.71623 119.311 7.38689 118.138 7.38689ZM7.10439 3.89536C8.41078 3.89536 9.5572 4.1487 10.5703 4.65538C10.7036 4.73138 10.8636 4.80738 10.9969 4.90872V9.69684L2.70534 5.13672C2.78532 5.06072 2.89196 5.01005 2.97195 4.95938C4.19835 4.25003 5.58472 3.89536 7.10439 3.89536Z" fill="white"/>
</g>
</g>
<defs>
<clipPath id="clip0_2_6">
<rect width="128" height="30" fill="white"/>
</clipPath>
</defs>
</svg>
